<svg width="20" height="14" viewBox="0 0 20 14" fill="none" xmlns="http://www.w3.org/2000/svg">
<path d="M2 0.99999C1.99999 0.447705 1.55227 -5.72199e-06 0.99999 0C0.447705 5.7221e-06 -5.5926e-06 0.447725 1.02365e-08 1.00001L0.999877 1C0 1.00001 1.02365e-08 0.999942 1.02365e-08 1.00001V10.9999C-0.000135531 12.6148 1.34577 14 3 14H18.9998C18.9999 14 19 14 19 13L18.9998 14C19.5521 14 20 13.5523 20 13C20 12.4477 19.5523 12 19 12V13C19 12 19.0001 12 19 12H3C2.46569 12 1.99996 11.5257 2 11.0001V0.99999C2 0.999922 1.99988 0.99999 0.999877 1L2 0.99999Z" fill="#0F172A"/>
<path d="M5.00008 9C5.55237 9 6.00008 8.55229 6.00008 8C6.00008 7.44771 5.55237 7 5.00008 7C4.4478 7 4.00008 7.44771 4.00008 8C4.00008 8.55229 4.4478 9 5.00008 9Z" fill="#0F172A"/>
<path d="M8.00008 3.5C8.00008 4.32843 7.32851 5 6.50008 5C5.67166 5 5.00008 4.32843 5.00008 3.5C5.00008 2.67157 5.67166 2 6.50008 2C7.32851 2 8.00008 2.67157 8.00008 3.5Z" fill="#0F172A"/>
<path d="M10.0001 11C10.5524 11 11.0001 10.5523 11.0001 10C11.0001 9.44771 10.5524 9 10.0001 9C9.4478 9 9.00008 9.44771 9.00008 10C9.00008 10.5523 9.4478 11 10.0001 11Z" fill="#0F172A"/>
<path d="M15.0001 5C15.0001 6.10457 14.1047 7 13.0001 7C11.8955 7 11.0001 6.10457 11.0001 5C11.0001 3.89543 11.8955 3 13.0001 3C14.1047 3 15.0001 3.89543 15.0001 5Z" fill="#0F172A"/>
<path d="M17.0001 2C17.5524 2 18.0001 1.55228 18.0001 1C18.0001 0.447715 17.5524 0 17.0001 0C16.4478 0 16.0001 0.447715 16.0001 1C16.0001 1.55228 16.4478 2 17.0001 2Z" fill="#0F172A"/>
</svg>
