<svg width="12" height="20" viewBox="0 0 12 20" fill="none" xmlns="http://www.w3.org/2000/svg">
<path d="M11.4803 9.26671L11.4797 9.30407L11.4794 9.33945L11.4791 9.34915L11.4791 9.36339L11.4778 9.68159L11.4781 9.94243L11.4783 9.9678L11.4783 9.99553L11.4783 10.0479L11.4793 10.4695L11.48 10.5371L11.4802 10.537L11.4812 10.8327L11.4814 10.8981L11.4813 10.9661L11.4821 11.0791L11.4823 11.0928L11.4822 11.1452L11.4823 11.1731L11.4823 11.1844L11.4827 11.2446L11.483 11.2868V11.2906L11.4822 11.6093L11.4479 11.5913L11.419 11.6359L11.3525 11.6364L11.3226 11.6597L11.2912 11.7348L11.298 11.7829L11.2991 11.794L11.2644 11.8448L11.2769 11.9204L11.3104 11.9694L11.3381 11.9833L11.3502 12.0213L11.363 12.0734L11.3561 12.0995L11.324 12.1471L11.2345 12.2296L11.18 12.2584L11.1645 12.3365L11.1724 12.395L11.2027 12.4302L11.201 12.446V12.4594L11.2027 12.4728L11.2079 12.4817L11.2218 12.4907L11.2392 12.4951L11.2444 12.5107L11.2461 12.5331L11.2548 12.5487L11.2687 12.5599L11.3024 12.5699L11.3685 12.6498L11.3617 12.7327L11.3765 12.7851L11.3503 12.8486L11.3526 12.8944L11.4882 12.9546L11.5363 13.0171L11.5179 13.1284L11.4934 13.1837L11.4477 13.2286L11.4385 13.298L11.4218 13.3418L11.4298 13.3553L11.4982 13.3936L11.5099 13.4727L11.4942 13.5029L11.5798 13.6437L11.5731 13.7177L11.5799 13.7712L11.5237 13.8651L11.5157 13.9331L11.4834 13.9799L11.4436 14.0027L11.3099 14.039L11.2364 14.1382L11.2301 14.2114L11.2163 14.2591L11.2252 14.2892L11.2259 14.2997L11.2188 14.3101L11.2107 14.314L11.1874 14.3192L11.1491 14.3914L11.1514 14.4337L11.1236 14.4874L11.1373 14.558L11.1428 14.5715L11.1418 14.5909L11.1337 14.6077L11.1153 14.6228L11.0746 14.6387L11.0334 14.6755L10.9754 14.7045L10.929 14.7086L10.9047 14.7215L10.8935 14.7474L10.8945 14.7784L10.9152 14.7998L10.9307 14.8227L10.9292 14.8355L10.9004 14.8614L10.8887 14.9556L10.7922 15.0906L10.7197 15.1179L10.6735 15.1753L10.6457 15.2533L10.6478 15.3156L10.6428 15.3443L10.6304 15.3633L10.6117 15.3744L10.5892 15.3791L10.5693 15.3712L10.5456 15.3443L10.5269 15.3363L10.5132 15.3427L10.5057 15.3649L10.4925 15.3932L10.4621 15.4251L10.4359 15.4331L10.421 15.4235L10.4122 15.395L10.3985 15.3776L10.3786 15.368L10.3512 15.3791L10.3139 15.4339L10.3163 15.4516L10.3312 15.4933L10.3175 15.5282L10.2914 15.5634L10.2671 15.5624L10.249 15.5789L10.2378 15.5947L10.229 15.6185L10.2247 15.6593L10.2481 15.7021L10.2935 15.7496L10.3555 15.7927L10.3786 15.8053L10.396 15.8354L10.3985 15.8766L10.3324 15.9534L10.2524 15.9698L10.2066 16.0095L10.1817 16.0443L10.1854 16.0822L10.1954 16.1059L10.2178 16.1312L10.2228 16.1565L10.2078 16.2008L10.1542 16.2261L10.1243 16.2356L10.1106 16.2656L10.0982 16.3114L10.1092 16.3741L10.146 16.4804L10.145 16.5174L10.0806 16.6011L10.0583 16.6572L10.077 16.7045L10.0932 16.7455L10.0882 16.7723L10.0608 16.796L10.0408 16.8118L10.0296 16.8307L10.0234 16.8496L10.0184 16.8733L10.0234 16.9079L10.0333 16.9347L10.0458 16.9489L10.057 16.96L10.0608 16.9741L10.0583 16.9946L10.0446 17.0104L10.0408 17.0246L10.0371 17.0403V17.0545L10.0433 17.064L10.0533 17.0766L10.0723 17.0825L10.0993 17.0902L10.103 17.1056L10.0908 17.1156L10.0814 17.1312L10.0732 17.1579L10.0674 17.2008L10.0626 17.2183L10.0422 17.264L10.0154 17.3043L10.0037 17.3182L9.97938 17.337L9.9533 17.3471L9.94225 17.3535L9.91486 17.3723L9.89795 17.3905L9.88338 17.3979L9.85361 17.4096L9.84081 17.4198L9.83352 17.4288L9.81322 17.4637L9.80783 17.4835L9.77684 17.5148L9.75958 17.541L9.74135 17.578L9.73811 17.5875L9.73585 17.6024L9.7362 17.6138L9.74015 17.6321L9.74089 17.6642L9.74519 17.6892L9.75668 17.7242L9.78576 17.791L9.78985 17.8071L9.79131 17.8207L9.78933 17.8361L9.79201 17.8516L9.8026 17.8732L9.8103 17.8943L9.81522 17.8988L9.84329 17.9156L9.86326 17.9365L9.88756 17.9575L9.89982 17.9745L9.92304 18.0154L9.93628 18.0312L9.94144 18.0345L9.96408 18.042L9.9802 18.0533L9.98916 18.0656L10.005 18.099L10.0071 18.1066L10.0064 18.1257L10.0106 18.1358L10.0071 18.1682L10.0028 18.182L10.006 18.1912L10.0082 18.1923L10.0078 18.1966L10.0025 18.2081L9.99274 18.2184L9.99059 18.2173L9.9798 18.2116L9.96424 18.2235L9.94706 18.2495L9.93735 18.2553H9.92981L9.92765 18.253V18.2495L9.9147 18.2484L9.87691 18.2507L9.82525 18.2572L9.81242 18.2535L9.80544 18.2533L9.74454 18.2697L9.70368 18.2743L9.69391 18.2807L9.65686 18.2873L9.60599 18.2933L9.55573 18.3031L9.52025 18.3051L9.47188 18.3053L9.39832 18.3198L9.35344 18.34L9.31242 18.3618L9.29869 18.3772L9.28848 18.3823L9.2623 18.4012L9.25518 18.4085L9.21289 18.4661L9.18502 18.4866L9.17635 18.4933L9.16547 18.4978L9.14952 18.494L9.14332 18.4884L9.13203 18.4692L9.1038 18.446L9.07693 18.428L9.05807 18.4192L9.04506 18.4155L9.03311 18.4181L9.01787 18.4268L8.99735 18.4357L8.97734 18.4401L8.96025 18.4462L8.93026 18.4626L8.91394 18.4739L8.88654 18.5016L8.87442 18.5166L8.85673 18.5494L8.85136 18.5907L8.84139 18.6271L8.84 18.661L8.83486 18.6934L8.82796 18.7144L8.81861 18.7303L8.80798 18.756L8.79012 18.7904L8.77755 18.8252L8.76763 18.8409L8.75974 18.8577L8.75095 18.8841L8.7474 18.9082L8.76505 18.9453L8.7724 18.9688L8.76577 18.9846L8.76937 18.9911L8.78953 19.0144L8.81285 19.0323L8.82704 19.0475L8.83342 19.0591L8.84801 19.098L8.85232 19.1062L8.87017 19.1309L8.88343 19.1418L8.90626 19.154L8.9288 19.1766L8.93682 19.1888L8.95296 19.2393L8.95971 19.2647L8.96456 19.2708L8.97658 19.32L8.97567 19.3262L8.98205 19.3394L8.98644 19.345L8.99147 19.3482L9.00173 19.3668L9.0007 19.3756L8.97312 19.4573L8.96999 19.462L8.94857 19.5172V19.5196L8.95078 19.5219L8.9456 19.5541L8.90575 19.6403L8.85802 19.6597L8.83932 19.6636L8.81928 19.6609L8.77936 19.67L8.7518 19.6701L8.73213 19.6689L8.70395 19.6633L8.66554 19.6535L8.62489 19.6326L8.59893 19.6111L8.57853 19.5984L8.56487 19.582L8.54383 19.5504L8.53073 19.5431L8.51066 19.5246L8.48205 19.5049L8.44191 19.4815L8.4288 19.4761L8.40832 19.4751L8.38916 19.4697L8.26998 19.4122L8.25271 19.406L8.2289 19.4008L8.1798 19.4078L8.17086 19.4059L8.14679 19.3963L8.13059 19.3874L8.108 19.3698L8.08854 19.3589L8.0544 19.3311L8.02497 19.3098L8.0152 19.2969L7.99441 19.2757L7.96544 19.2539L7.94225 19.2408L7.89998 19.2283L7.86076 19.2134L7.76496 19.1673L7.6724 19.1339L7.63325 19.1165L7.62229 19.1148L7.59209 19.105L7.56329 19.1007L7.49461 19.097L7.44896 19.1012L7.39976 19.1161L7.37874 19.1294L7.386 19.1273L7.36354 19.1451L7.31915 19.1623L7.29807 19.1874L7.2878 19.1911L7.2412 19.2402L7.19067 19.2878L7.16204 19.3209L7.14424 19.3528L7.1364 19.3739L7.13386 19.3885L7.12725 19.4067L7.09351 19.4829L7.08132 19.4943L7.06774 19.5023L7.06342 19.5098L7.05494 19.5186L7.02755 19.5378L7.025 19.5416L7.01838 19.56L7.0098 19.5705L6.99514 19.5815L6.98624 19.5846L6.98208 19.5823L6.97316 19.5878L6.93542 19.6389L6.9142 19.6811L6.90404 19.7126L6.89852 19.7359L6.89535 19.7673L6.89997 19.8036L6.90517 19.8241L6.92012 19.8572L6.927 19.8688L6.93998 19.8852L6.95604 19.8967L7.01781 19.9486L7.03379 19.9587L7.0112 19.9683L7.00204 19.9693L6.98601 19.9745L6.95298 19.9914L6.93009 20L6.91001 19.998L6.88707 19.9888L6.86871 19.9663L6.86054 19.9324L6.86057 19.8967L6.85096 19.8561L6.84455 19.8407L6.83276 19.8272L6.77595 19.7889L6.75214 19.7673L6.74047 19.7479L6.71992 19.696L6.69413 19.6465L6.68022 19.6742L6.66759 19.6716L6.62344 19.6702L6.61479 19.6681L6.61424 19.6649L6.58548 19.6628L6.54744 19.6547L6.54587 19.6592L6.53885 19.6956L6.54279 19.71L6.54835 19.7216L6.5557 19.7315L6.56511 19.7405L6.5934 19.7564L6.63083 19.7713L6.66258 19.7972L6.68004 19.8159L6.68669 19.843L6.67025 19.8967L6.6627 19.9097L6.65347 19.9198L6.6406 19.9299L6.62829 19.9362L6.59077 19.924L6.52121 19.8525L6.50505 19.8409L6.48232 19.8276L6.44111 19.8082L6.39554 19.7921L6.35142 19.7592L6.34206 19.7474L6.33569 19.7355L6.33362 19.7292L6.33153 19.7052L6.33222 19.6961L6.34972 19.6518L6.35854 19.617L6.35881 19.5981L6.35021 19.568L6.33503 19.5378L6.32426 19.5232L6.30932 19.5103L6.27036 19.482L6.25847 19.4709L6.25085 19.4621L6.21999 19.4162L6.19325 19.3679L6.18471 19.3359L6.13517 19.2425L6.11918 19.2028L6.11692 19.1894L6.10315 19.1377L6.10351 19.125L6.12907 19.0605L6.13038 19.0527L6.12922 19.0371L6.12761 19.0316L6.12243 19.0249L6.11696 19.0216L6.09511 19.0152L6.07099 19.0163L6.04123 19.0223L6.02325 18.9974L6.00681 18.979L5.99439 18.9623L5.97458 18.9322L5.96589 18.9156L5.96226 18.9032L5.96211 18.8897L5.96406 18.8803L5.96948 18.8687L5.97263 18.8549L5.9742 18.8394L5.98031 18.8148L5.98626 18.8028L5.9905 18.7979L6.01574 18.7776L6.02666 18.7661L6.03768 18.7432L6.04376 18.7362L6.05708 18.7282L6.08387 18.7194L6.13901 18.7155L6.15893 18.7114L6.19092 18.6975L6.19983 18.6884L6.20843 18.6713L6.21275 18.6566L6.22983 18.5715L6.23256 18.5466L6.23182 18.5312L6.22864 18.5136L6.21899 18.4775L6.19623 18.4098L6.18056 18.3736L6.17022 18.3564L6.14944 18.3286L6.09323 18.2713L6.08122 18.2541L6.0353 18.175L6.01963 18.1368L6.01257 18.1088L6.00511 18.0916L5.99249 18.069L5.97876 18.0498L5.96751 18.0297L5.96584 18.0237L5.95461 17.9659L5.95229 17.9416L5.9541 17.8778L5.95541 17.8701L5.95818 17.8645L5.96726 17.8584L5.97447 17.8573L5.9867 17.8596L6.02974 17.8738L6.05194 17.8712L6.06568 17.8638L6.07559 17.8536L6.07981 17.8384L6.08008 17.8287L6.07847 17.8197L6.07323 17.8081L6.05269 17.7791L5.99498 17.7164L5.98397 17.6929L5.96973 17.6765L5.96398 17.6598L5.9656 17.6507L5.96915 17.6446L5.96903 17.6262L5.96646 17.6076L5.96835 17.566L5.97452 17.5358L5.97976 17.5204L5.97985 17.5045L5.97361 17.489L5.96685 17.4791L5.95223 17.4661L5.94172 17.4592L5.92589 17.4525L5.90582 17.45L5.82788 17.4285L5.80895 17.4219L5.78172 17.4072L5.77089 17.3923L5.75957 17.371L5.74491 17.3384L5.72868 17.3257L5.71103 17.3145L5.7007 17.3133L5.69206 17.3052L5.69037 17.2984L5.69109 17.2847L5.68983 17.2813L5.68736 17.2793L5.66862 17.2814L5.65754 17.2849L5.64265 17.2931L5.60914 17.292L5.59775 17.2941L5.57295 17.2864L5.55934 17.2781L5.55325 17.271L5.54645 17.245L5.55067 17.2285L5.55718 17.2134L5.56535 17.188L5.56803 17.1694L5.5676 17.1509L5.56499 17.1442L5.55759 17.1351L5.54186 17.1031L5.51974 17.085L5.50517 17.0755L5.46708 17.0525L5.44962 17.0438L5.40895 17.0125L5.37576 16.9796L5.36656 16.9676L5.35627 16.9501L5.34673 16.938L5.3187 16.9378L5.30719 16.94L5.29814 16.9356L5.28527 16.9249L5.2763 16.9209L5.25106 16.9197L5.23572 16.9135L5.22959 16.9093L5.21754 16.9211L5.19712 16.9024L5.19054 16.8938L5.17867 16.8618L5.18013 16.8521L5.18612 16.8421L5.18511 16.823L5.18152 16.8164L5.1688 16.8113L5.14175 16.7947L5.07894 16.7451L5.06117 16.7332L5.05523 16.7319L5.03783 16.7375L5.00477 16.7623L4.99355 16.7742L4.96686 16.8102L4.95329 16.8232L4.90932 16.8513L4.89673 16.8575L4.86482 16.8582L4.8374 16.8546L4.79795 16.8404L4.76125 16.8164L4.75595 16.8105L4.70275 16.6978L4.69721 16.6894L4.6956 16.6839L4.69366 16.6575L4.71187 16.6408L4.7288 16.6306L4.7361 16.6101L4.77004 16.6096L4.79644 16.589L4.81161 16.5844L4.83128 16.5611L4.83289 16.5551L4.83212 16.5403L4.80792 16.5434L4.80211 16.5419L4.79921 16.5367L4.79696 16.5228L4.78485 16.5048L4.74926 16.517L4.68255 16.5306L4.66205 16.5327L4.63202 16.5291L4.62367 16.5244L4.60077 16.5046L4.53392 16.4163L4.49642 16.3994L4.48753 16.3936L4.48128 16.387L4.47704 16.3788L4.47521 16.3699L4.47005 16.3575L4.46485 16.349L4.45902 16.3449L4.44325 16.3402L4.42314 16.3398L4.39903 16.3453L4.37875 16.3441L4.36343 16.3368L4.3169 16.3061L4.29772 16.288L4.27335 16.2563L4.27219 16.2447L4.27387 16.2215L4.27279 16.2063L4.26789 16.1895L4.26058 16.18L4.22234 16.1565L4.18349 16.1364L4.17508 16.1358L4.16994 16.1377L4.14547 16.1543L4.0163 16.0672L3.94848 16.0026L3.92903 15.9589L3.92245 15.9501L3.86009 15.8441L3.83741 15.82L3.81609 15.7988L3.78907 15.7819L3.7609 15.7701L3.74364 15.767L3.72832 15.7595L3.70276 15.7383L3.69525 15.73L3.64067 15.6456L3.63435 15.6327L3.62495 15.6079L3.61281 15.5661L3.60424 15.5177L3.60215 15.4974L3.59346 15.4563L3.59075 15.4334L3.58502 15.4053L3.58533 15.3608L3.59116 15.3258L3.58894 15.2586L3.59366 15.2225L3.60089 15.1988L3.63395 15.1277L3.65222 15.0667L3.66229 15.0517L3.67063 15.0389L3.7112 14.994L3.72842 14.9812L3.80345 14.8927L3.82151 14.8512L3.83151 14.8335L3.83485 14.8066L3.84818 14.7308L3.85735 14.7056L3.86013 14.6819L3.87014 14.6471L3.87708 14.6113L3.89097 14.5603L3.9007 14.5326L3.93238 14.4744L4.00101 14.3669L4.00684 14.362L4.02185 14.3538L4.04019 14.3354L4.0613 14.3187L4.07936 14.2981L4.09103 14.2821L4.11132 14.2374L4.12716 14.1749L4.12938 14.1585L4.13021 14.1266L4.12076 14.0669L4.1166 14.0463L4.10604 14.0129L4.08159 13.9674L4.06214 13.9464L4.04269 13.9134L4.03491 13.8814L4.03519 13.8593L4.03658 13.8472L4.04074 13.8305L4.0538 13.8088L4.09243 13.7704L4.11438 13.7565L4.1341 13.7295L4.13744 13.7089L4.148 13.6864L4.16161 13.6647L4.21635 13.6277L4.28192 13.5743L4.29693 13.5469L4.30526 13.5138L4.32082 13.434L4.31999 13.4123L4.3091 13.3918L4.20301 13.3282L4.16161 13.2954L4.10465 13.2644L4.09521 13.2601L4.08159 13.2584L4.07492 13.2552L4.03072 13.2095L4.00426 13.1848L3.98399 13.1724L3.95241 13.1583L3.92867 13.1422L3.91815 13.1381L3.90993 13.1371L3.89381 13.1386L3.87414 13.1307L3.85303 13.1266L3.83569 13.1254L3.79401 13.1277L3.77345 13.1272L3.76416 13.1251L3.74161 13.1116L3.72325 13.1048L3.69726 13.0917L3.66139 13.0657L3.55947 13.0134L3.52421 12.997L3.49489 12.988L3.47616 12.9853L3.44388 12.9836L3.41882 12.9774L3.40123 12.9709L3.37146 12.9694L3.33918 12.9817L3.32425 12.9907L3.3122 13.0013L3.28359 13.0526L3.28103 13.0609L3.28071 13.0669L3.28274 13.0873L3.27093 13.1185L3.23441 13.174L3.21403 13.2013L3.18761 13.2153L3.14828 13.2572L3.1124 13.3001L3.10728 13.3038L3.07999 13.3153L3.04981 13.3222L3.02158 13.324L3.00305 13.3215L2.9698 13.3001L2.88709 13.2516L2.87774 13.241L2.85715 13.1971L2.84598 13.1816L2.82356 13.168L2.80917 13.1536L2.79781 13.1389L2.78629 13.122L2.78081 13.1111L2.77472 13.0892L2.76454 13.0393L2.75727 13.0246L2.74587 12.9895L2.74457 12.9764L2.74462 12.9111L2.73963 12.8835L2.72887 12.8587L2.72438 12.8542L2.71316 12.8352L2.71012 12.8282L2.70683 12.8109L2.70015 12.7949L2.67739 12.7506L2.65713 12.7034L2.64687 12.6872L2.64117 12.6616L2.6413 12.6559L2.6442 12.6506L2.67311 12.6202L2.67574 12.6029L2.67786 12.598L2.72699 12.5388L2.72907 12.5326L2.73159 12.495L2.72206 12.4486L2.7178 12.4335L2.69309 12.391L2.67775 12.3704L2.67092 12.3585L2.66468 12.3428L2.65709 12.3152L2.65363 12.3L2.65139 12.2363L2.64992 12.2239L2.63912 12.1919L2.63069 12.1486L2.63062 12.1294L2.63271 12.1153L2.63293 12.1021L2.63149 12.0895L2.61837 12.053L2.62017 12.0313L2.61905 12.0221L2.60408 11.9561L2.5958 11.9392L2.58464 11.9277L2.57044 11.9177L2.54324 11.9097L2.53568 11.905L2.49108 11.8527L2.47375 11.815L2.46879 11.8068L2.44624 11.7912L2.4271 11.7706L2.42429 11.7561L2.41936 11.747L2.40301 11.7341L2.35437 11.7076L2.342 11.6962L2.28976 11.636L2.26922 11.6187L2.23695 11.5968L2.14064 11.5395L2.12308 11.5215L2.11597 11.5107L2.11528 11.5029L2.10984 11.4962L2.10112 11.4912L2.08262 11.4871L2.06507 11.4808L2.05499 11.4756L2.04348 11.467L2.02886 11.4506L2.02407 11.4319L2.01938 11.4194L2.01492 11.4124L2.01008 11.408L1.98915 11.3953L1.9637 11.39L1.93586 11.3794L1.922 11.3715L1.90769 11.3566L1.89268 11.3488L1.86276 11.3398L1.83524 11.3232L1.81229 11.305L1.7799 11.2833L1.73917 11.2483L1.69808 11.1991L1.68035 11.1749L1.67208 11.156L1.66683 11.0822L1.63626 11.0528L1.62386 11.0352L1.60574 11.0013L1.58747 10.9577L1.5668 10.9238L1.52791 10.9152L1.49364 10.9111L1.43352 10.8983L1.41865 10.8894L1.40482 10.8722L1.39085 10.8523L1.37755 10.8294L1.37366 10.8128L1.3686 10.7683L1.3614 10.7321L1.36024 10.7272L1.3509 10.7097L1.33999 10.6935L1.32892 10.6847L1.24357 10.6487L1.22499 10.6398L1.20835 10.6281L1.17526 10.5949L1.16877 10.5841L1.16223 10.5688L1.15427 10.5559L1.12178 10.5266L1.1043 10.4979L1.07825 10.4663L1.05828 10.4505L1.02922 10.4338L1.00505 10.4163L0.997097 10.4007L0.962461 10.3695L0.924148 10.3413L0.886092 10.3089L0.865395 10.2877L0.823707 10.2381L0.817438 10.2255L0.817594 10.1803L0.824671 10.1485L0.828447 10.141L0.831008 10.131L0.828838 10.1085L0.829427 10.0726L0.831778 10.0564L0.840402 10.0358L0.840883 10.0269L0.835679 10.0079L0.823115 9.98051L0.80316 9.94996L0.795316 9.94125L0.773638 9.92579L0.740074 9.90567L0.716819 9.88635L0.693785 9.87366L0.652091 9.84542L0.642644 9.83547L0.633942 9.81756L0.605229 9.72762L0.601176 9.7003L0.603737 9.68192L0.613209 9.64378L0.653656 9.59262L0.6761 9.56681L0.678873 9.56077L0.681854 9.54054L0.680318 9.52032L0.673449 9.5013L0.662474 9.48396L0.65338 9.47319L0.631055 9.45265L0.618636 9.43498L0.602865 9.40529L0.595724 9.38438L0.582274 9.36256L0.57059 9.33465L0.568698 9.33148L0.557167 9.3244L0.552633 9.31662L0.548835 9.30482L0.547134 9.29259L0.541708 9.27558L0.519338 9.22609L0.500539 9.18863L0.491406 9.17462L0.470493 9.1266L0.485141 9.05055L0.46914 9.00156L0.462755 8.97507L0.453975 8.92902L0.439574 8.86674L0.430574 8.81685L0.427582 8.79466L0.423617 8.72535L0.424059 8.71744L0.433134 8.69183L0.433411 8.68697L0.423042 8.64058L0.419922 8.61119L0.420214 8.60202L0.425495 8.57394L0.429724 8.5647L0.440994 8.5492L0.443822 8.53955L0.437746 8.51595L0.436065 8.49931L0.436959 8.47674L0.444364 8.44495L0.444345 8.41802L0.43968 8.40859L0.438199 8.40133L0.440068 8.39211L0.447284 8.37527L0.453886 8.3671L0.461529 8.36092L0.48259 8.31702L0.484132 8.30668L0.482588 8.29769L0.476014 8.27911L0.475541 8.2597L0.476469 8.24895L0.484413 8.22047L0.494943 8.19364L0.534542 8.10663L0.540572 8.08819L0.549054 8.04433L0.561455 8.01538L0.58897 7.9744L0.601201 7.95453L0.605443 7.94472L0.609542 7.93981L0.624798 7.92744L0.652305 7.91354L0.660113 7.9077L0.680146 7.88485L0.690501 7.87349L0.697958 7.87023L0.742456 7.86713L0.76645 7.86057L0.784238 7.85072L0.794063 7.8433L0.801498 7.83525L0.809347 7.80892L0.810367 7.8013L0.810656 7.76386L0.807125 7.74048L0.796277 7.70971L0.786997 7.67668L0.784763 7.65058L0.7856 7.63788L0.789937 7.61575L0.794835 7.60013L0.822815 7.53358L0.831592 7.49883L0.834384 7.47711L0.835015 7.4622L0.833548 7.44092L0.823365 7.40284L0.820078 7.39535L0.784519 7.33799L0.777089 7.32813L0.767265 7.32039L0.74946 7.31501L0.732095 7.30681L0.722648 7.29827L0.716877 7.28524L0.715074 7.2675L0.716402 7.25189L0.719547 7.24163L0.729991 7.22404L0.790368 7.16928L0.805649 7.13955L0.845601 7.06934L0.86195 7.05199L0.876553 7.04051L0.901598 7.02665L0.99383 6.98007L1.07815 6.9581L1.10933 6.95206L1.12796 6.9419L1.14234 6.93718L1.15685 6.93562L1.23858 6.93544L1.29562 6.94396L1.32598 6.93961L1.4168 6.88001L1.46192 6.85333L1.50117 6.82312L1.50536 6.81755L1.5098 6.80986L1.5131 6.79846L1.52484 6.74017L1.53448 6.72117L1.53729 6.69832L1.53682 6.67994L1.52907 6.63876L1.52554 6.63011L1.52393 6.61813L1.53869 6.54358L1.54487 6.52378L1.56074 6.50129L1.57292 6.47874L1.5784 6.46445L1.5907 6.41838L1.59197 6.39267L1.58917 6.37001L1.5759 6.33496L1.57418 6.32359L1.57641 6.30144L1.58712 6.26675L1.59524 6.2537L1.63011 6.22156L1.6589 6.19005L1.68227 6.17423L1.68871 6.16661L1.70591 6.12947L1.71396 6.10694L1.72143 6.09336L1.73687 6.07425L1.74328 6.06884L1.76912 6.05367L1.78559 6.03588L1.80871 5.98963L1.819 5.97516L1.83567 5.95834L1.84967 5.94743L1.88589 5.93267L1.90332 5.92025L1.93165 5.90702L1.94179 5.89781L1.94854 5.88561L1.95535 5.84375L1.97822 5.77877L1.97896 5.76337L1.97688 5.74923L1.97022 5.72068L1.96195 5.69574L1.9618 5.68426L1.96997 5.6584L1.98544 5.62736L1.99568 5.58602L1.99817 5.56608L1.99742 5.53901L2.00595 5.48229L2.00576 5.46842L2.00206 5.43103L1.99949 5.41772L1.99679 5.38286L1.98682 5.35017L1.98614 5.34245L1.9894 5.29938L1.99482 5.26138L1.99379 5.2544L1.96429 5.20118L1.94023 5.16997L1.92649 5.13112L1.89743 5.08488L1.87422 5.03677L1.8595 5.01869L1.85132 5.01154L1.82442 4.9982L1.81061 4.99916L1.76989 5.00856L1.76206 5.00794L1.73009 4.99837L1.69249 4.92602L1.6624 4.87532L1.64273 4.84717L1.61921 4.82032L1.58705 4.79006L1.56535 4.76093L1.54108 4.73866L1.53338 4.72967L1.52973 4.72083L1.52824 4.68899L1.53902 4.66663L1.55525 4.64442L1.56448 4.62573L1.58978 4.55285L1.60411 4.5253L1.63015 4.49776L1.63756 4.48391L1.64202 4.45487L1.64669 4.35804L1.66068 4.26344L1.66474 4.24919L1.70219 4.18935L1.70377 4.18095L1.70566 4.13474L1.71264 4.09461L1.718 4.08282L1.72328 4.07612L1.73472 4.0664L1.74233 4.06088L1.76829 4.04761L1.81221 4.04235L1.82926 4.03824L1.88746 4.00962L1.90158 4.00795L1.91449 4.00919L1.93813 4.02375L1.97554 4.04216L1.985 4.04554L2.03995 4.05574L2.05571 4.05036L2.06958 4.04026L2.12204 4.01967L2.14894 4.00384L2.17953 3.98299L2.21425 3.95652L2.24128 3.93973L2.25226 3.93545L2.27183 3.93089L2.29724 3.9291L2.33247 3.93338L2.38096 3.93339L2.43931 3.93923L2.46348 3.94525L2.4799 3.9471L2.53972 3.95128L2.57475 3.94945L2.61362 3.9416L2.67582 3.93236L2.70418 3.92533L2.74451 3.90982L2.77285 3.91056L2.80174 3.90501L2.8173 3.89427L2.84509 3.86354L2.86648 3.84354L2.90538 3.82021L2.94039 3.78613L2.94512 3.77576L2.95095 3.74242L2.97012 3.7239L2.98179 3.71723L3.0068 3.70871L3.03709 3.70426L3.04792 3.69981L3.07849 3.67498L3.121 3.66794L3.14295 3.67239L3.19824 3.6924L3.23298 3.69796L3.26271 3.69721L3.30605 3.69166L3.3419 3.67757L3.38691 3.63088L3.4058 3.60122L3.42164 3.58121L3.43692 3.57379L3.45082 3.56378L3.4686 3.53152L3.47694 3.52262L3.51834 3.49704L3.56446 3.48072L3.61225 3.46959L3.67032 3.43917L3.67505 3.42879L3.6806 3.39911L3.67004 3.24241L3.6697 3.21975L3.68838 3.15449L3.69451 3.09868L3.70018 3.08907L3.70646 3.08235L3.73507 3.06093L3.74232 3.05368L3.74962 3.04194L3.7531 3.02986L3.75495 3.01372L3.75461 2.99476L3.75342 2.98745L3.74203 2.9546L3.74134 2.9384L3.74814 2.89538L3.76068 2.86582L3.7827 2.83675L3.8498 2.7723L3.89244 2.75462L3.9054 2.74278L3.93316 2.726L4.00642 2.67641L4.02135 2.66821L4.10171 2.63908L4.11837 2.62454L4.1212 2.61603L4.12206 2.60626L4.11907 2.56673L4.11281 2.52774L4.11339 2.51594L4.11857 2.48996L4.11996 2.48463L4.1376 2.45117L4.14328 2.43712L4.14395 2.40453L4.15152 2.3662L4.16535 2.33885L4.1877 2.28577L4.19725 2.25373L4.19786 2.22026L4.20276 2.1628L4.19982 2.15513L4.18803 2.13602L4.17762 2.12609L4.16873 2.11083L4.1657 2.09619L4.16793 2.06889L4.17347 2.0498L4.19655 2.00196L4.2111 1.98646L4.21769 1.97504L4.21823 1.94962L4.23328 1.92028L4.23482 1.8932L4.23175 1.87199L4.2245 1.84978L4.21249 1.83061L4.20967 1.82065L4.20795 1.80614L4.20466 1.7954L4.20282 1.79095L4.19548 1.78183L4.18267 1.76429L4.16984 1.75444L4.16696 1.74809L4.16471 1.71496L4.16398 1.67137L4.1562 1.62226L4.16996 1.57802L4.17524 1.53577L4.1762 1.50788L4.17418 1.48017L4.17137 1.46918L4.15849 1.44765L4.14894 1.43746L4.10308 1.43662L4.09481 1.43529L4.07566 1.42637L4.06438 1.416L4.05339 1.38553L4.05058 1.36151L4.04766 1.348L4.04194 1.33464L4.02353 1.31948L4.00092 1.30714L3.97126 1.28691L3.929 1.26431L3.9142 1.26299L3.87634 1.25297L3.83996 1.23669L3.79476 1.20401L3.74105 1.18074L3.71188 1.15356L3.68438 1.14504L3.63216 1.13709L3.60945 1.11806L3.58169 1.10201L3.53729 1.06206L3.52717 1.04863L3.52402 1.03336L3.51077 1.01028L3.48349 0.978585L3.46725 0.963855L3.45889 0.953405L3.45095 0.933043L3.44563 0.908806L3.42677 0.864314L3.42719 0.841885L3.43782 0.817478L3.445 0.8077L3.45575 0.762507L3.45618 0.738811L3.45411 0.722231L3.45681 0.716333L3.465 0.707845L3.46757 0.702701L3.4683 0.697504L3.46664 0.68846L3.45972 0.675716L3.45326 0.668334L3.44211 0.660291L3.42771 0.644359L3.39068 0.575445L3.38389 0.568601L3.36609 0.560108L3.3386 0.530256L3.33257 0.521998L3.31733 0.488563L3.30664 0.47589L3.29787 0.468134L3.2899 0.465046L3.27747 0.465369L3.27043 0.463074L3.26159 0.455742L3.2465 0.435784L3.23438 0.424014L3.21576 0.411793L3.18607 0.395911L3.10118 0.357974L3.08187 0.346614L3.07484 0.334889L3.07312 0.328402L3.07136 0.300088L3.06681 0.283624L3.05345 0.261651L3.04589 0.255459L3.0382 0.250527L3.00655 0.24024L2.98352 0.22875L2.93931 0.213665L2.88929 0.185841L2.82706 0.136948L2.80678 0.112125L2.80039 0.0929391L2.79983 0.0718702L2.8015 0.0624639L2.82178 0.0383857L2.84317 0L2.90762 0.000846811L2.91635 0.000937137L3.05291 0.00264204L3.07953 0.00298452L3.09258 0.00229956L3.11026 0.00221676L3.11152 0.00223934L3.14512 0.00274366L3.25775 0.00255171L3.29185 0.00333454L3.30432 0.00307861L3.40975 0.00434693L3.49612 0.00531039L3.59407 0.00448242L3.60185 0.00447113L3.61635 0.00471952L3.77981 0.00313507L3.86583 0.00290173L3.87563 0.00216783L3.88172 0.00248397L3.92068 0.00362057L3.92763 0.00293936L4.00385 0.00202105L4.05141 0.00208879L4.11948 0.000880683L4.1673 0.000112908L4.22687 0.000568305L4.36001 0.00156942L4.3655 0.000534432L4.41928 0.000101617L4.57211 0.00381627L4.57666 0.0044222L4.62588 0.00522383L4.63172 0.00582223L4.66386 0.00704161L4.66545 0.00691742L4.7482 0.0100712L4.82824 0.00946529L4.82854 0.00946153L5.1744 0.0107562L5.18049 0.0108427L5.19646 0.0106734L5.2344 0.0111137L5.26402 0.0112153L5.33972 0.0109895L5.47561 0.0120545L5.48506 0.0117083L5.54755 0.0125777L5.59554 0.0138836L5.61262 0.0142335L5.69811 0.0164088L5.72558 0.0178577L5.73536 0.0174249L5.74987 0.0181926L5.83426 0.0213538L5.95058 0.0241348L6.03206 0.025546H6.03374L6.05683 0.0258772L6.22115 0.0285114L6.22458 0.0281652L6.22836 0.0286845L6.23274 0.0290269L6.28708 0.029614L6.38544 0.0302123L6.39786 0.0311983L6.5942 0.0355597L6.70572 0.0387921L6.71624 0.0382803L6.76818 0.0385927L6.77376 0.0389313L6.9392 0.0415692L6.94427 0.0412267L7.05483 0.0426943L7.06802 0.0425626L7.07751 0.0428711L7.12735 0.0444177L7.20479 0.0455127L7.28326 0.0453359L7.3641 0.0459304L7.36448 0.045968L7.42285 0.0462013L7.56009 0.0496293L7.56807 0.0498851L7.99515 0.0614103L8.05439 0.0610905L8.21549 0.055375L8.40644 0.0498964L8.77248 0.0504985L8.89895 0.0514956H9.0212L9.42604 0.0507431L9.48606 0.0469614L9.57827 0.0465851L9.62475 0.0462352L9.86061 0.0454713L10.0426 0.0488579L10.2082 0.0518681L10.2607 0.0537495L10.4581 0.0575085L10.6155 0.0601913L10.6925 0.0616474H10.7353L10.742 0.137636L10.7273 0.329766L10.7217 0.464652L10.6906 0.540139L10.6787 0.551543L10.6505 0.668916L10.64 0.776957L10.6572 0.895466L10.7025 1.03827L10.7364 1.12743L10.8987 1.42613L10.9459 1.50281L10.984 1.54918L11.0635 1.62244L11.0938 1.68746L11.0964 1.70746L11.0926 1.72617L11.1007 1.79652L11.2063 2.15485L11.2255 2.26261L11.2286 2.27086L11.2372 2.2732L11.2439 2.28572L11.253 2.30292L11.2582 2.30323L11.2599 2.3074V2.31302L11.2571 2.31846L11.2529 2.32154L11.2547 2.33623L11.2464 2.344L11.2472 2.39416L11.2661 2.48245L11.2908 2.55096L11.3453 2.63472L11.358 2.70282L11.4017 2.77723L11.4511 2.82892L11.4847 2.84343L11.5031 2.93357L11.5034 2.99176L11.5009 3.01294L11.5011 3.05381L11.5017 3.26439L11.5014 3.27367L11.5017 3.31041L11.5017 3.53003L11.5006 3.54523L11.5009 3.65459L11.4988 3.87545L11.499 3.93652L11.4997 4.20574L11.4968 4.29831L11.4958 4.51125L11.4963 5.00674L11.4961 5.02066L11.4959 5.02302L11.496 5.04325L11.496 5.0607L11.496 5.09594L11.4959 5.16288L11.4965 5.51857L11.497 5.57099L11.4971 5.57186L11.4977 5.9335L11.4979 5.99345L11.4967 5.99849L11.498 6.04837L11.4976 6.05173L11.4985 6.14471L11.4976 6.57499L11.4971 7.31185L11.4969 7.31293L11.4969 7.47182L11.4965 7.5244L11.4964 7.52987L11.4957 7.57906L11.4867 8.34911L11.4868 8.35141L11.4845 8.56298L11.4837 8.64208L11.4828 8.72195L11.4819 8.73558L11.4825 8.77647L11.4804 9.21669V9.21703L11.4805 9.25853L11.4803 9.26671Z" fill="#106AA2"/>
</svg>
