<svg width="20" height="16" viewBox="0 0 20 16" fill="none" xmlns="http://www.w3.org/2000/svg">
<path d="M2 13.995H17.992C17.983 13.995 17.983 4.005 17.983 4.005H1.992C2 4.005 2 13.995 2 13.995ZM0 1.995C0 0.892 0.898 0 1.99 0H18.01C19.108 0 20 0.895 20 1.994V14.006C19.9992 14.5339 19.7894 15.04 19.4165 15.4137C19.0436 15.7873 18.5379 15.9981 18.01 16H1.99C1.46185 15.9989 0.955697 15.7884 0.582614 15.4146C0.209531 15.0407 -1.06266e-06 14.5342 0 14.006V1.995Z" fill="#0F172A"/>
<path d="M6 2V14H8V2H6ZM12 2V14H14V2H12Z" fill="#0F172A"/>
<path fill-rule="evenodd" clip-rule="evenodd" d="M2 8H19V10H2V8Z" fill="#0F172A"/>
</svg>
